<?xml version="1.0" encoding="UTF-8"?>
<svg id="a" xmlns="http://www.w3.org/2000/svg" viewBox="0 0 1024 1024">
  <defs>
    <style>
      .cls-1 {
        fill: #12352b;
        stroke-width: 0px;
      }
    </style>
  </defs>
  <path class="cls-1" d="M779.58,251.32h-20.35s0-12.87,0-12.87h57.79s0,12.87,0,12.87h-20.35s0,50.41,0,50.41h-17.09s0-50.41,0-50.41ZM823.87,238.45h19.09s17.19,40.18,17.19,40.18l17.19-40.18h18.67s0,63.28,0,63.28h-15.08s0-34.48,0-34.48c0-1.48.32-6.33.42-6.75l-2.32,6.75-14.24,34.48h-10.12s-14.24-34.48-14.24-34.48c-.63-1.48-2.11-6.01-2.32-6.75,0,.42.42,5.27.42,6.75v34.48s-14.66,0-14.66,0v-63.28ZM609.4,512l-83.02,143.79h-174.03s-83.02-143.79-83.02-143.79l83.02-143.79h174.03s83.02,143.79,83.02,143.79ZM569.57,238.45h-260.41c-19.63,0-37.77,10.47-47.59,27.47l-126.21,218.6c-9.82,17-9.82,37.95,0,54.95l126.21,218.6c9.82,17,27.96,27.48,47.59,27.48h260.41c19.63,0,37.77-10.47,47.59-27.48l126.21-218.6c9.82-17,9.82-37.95,0-54.95l-126.21-218.6c-9.82-17-27.96-27.48-47.59-27.48Z"/>
</svg>