<?xml version="1.0" encoding="UTF-8"?>
<svg id="Layer_2" data-name="Layer 2" xmlns="http://www.w3.org/2000/svg" viewBox="0 0 597.13 70">
  <defs>
    <style>
      .cls-1 {
        fill: #ded0f0;
        stroke-width: 0px;
      }
    </style>
  </defs>
  <g id="a">
    <g>
      <g>
        <path class="cls-1" d="M371.25,15.78V.25h2.46v15.53h-2.46Z"/>
        <path class="cls-1" d="M376.69,15.78V4.5h2.25v2.44l-.29-.38c.24-.76.67-1.34,1.29-1.73.63-.39,1.34-.58,2.15-.58.9,0,1.71.24,2.41.72s1.17,1.11,1.41,1.91l-.67.06c.33-.9.84-1.58,1.53-2.02.69-.44,1.48-.67,2.37-.67.78,0,1.48.18,2.12.54.63.36,1.14.86,1.51,1.5.37.64.56,1.37.56,2.19v7.29h-2.36v-6.65c0-.57-.1-1.05-.3-1.45-.2-.4-.48-.7-.83-.92-.35-.22-.77-.32-1.24-.32s-.89.11-1.25.32c-.36.22-.65.52-.85.93-.21.4-.31.88-.31,1.44v6.65h-2.33v-6.65c0-.57-.1-1.05-.3-1.45-.2-.4-.48-.7-.83-.92-.35-.22-.77-.32-1.26-.32s-.89.11-1.25.32c-.36.22-.64.52-.84.93-.2.4-.3.88-.3,1.44v6.65h-2.36Z"/>
        <path class="cls-1" d="M395.84,19.95V4.5h2.25v2.33l-.27-.54c.42-.64.97-1.14,1.67-1.5.69-.36,1.49-.54,2.38-.54,1.07,0,2.03.26,2.89.77.85.51,1.53,1.22,2.02,2.11.49.89.74,1.89.74,3s-.25,2.11-.74,3c-.49.89-1.16,1.59-2.01,2.12-.85.52-1.81.78-2.9.78-.88,0-1.67-.18-2.39-.54-.72-.36-1.27-.88-1.66-1.56l.38-.44v6.46h-2.36ZM401.64,13.84c.67,0,1.26-.16,1.77-.48.51-.32.92-.76,1.22-1.32.3-.56.45-1.2.45-1.91s-.15-1.34-.45-1.9c-.3-.56-.71-.99-1.22-1.31-.51-.32-1.11-.48-1.77-.48s-1.24.16-1.76.48c-.52.32-.93.76-1.23,1.31-.3.56-.45,1.19-.45,1.9s.15,1.34.45,1.91c.3.56.71,1,1.23,1.32.52.32,1.11.48,1.76.48Z"/>
        <path class="cls-1" d="M413.18,16.03c-.76,0-1.44-.14-2.01-.41-.58-.27-1.02-.65-1.34-1.13s-.48-1.05-.48-1.7c0-.61.14-1.16.41-1.65.27-.49.69-.9,1.26-1.23.57-.33,1.29-.57,2.15-.71l3.92-.65v1.86l-3.46.6c-.63.11-1.08.31-1.38.59s-.44.65-.44,1.09.16.78.49,1.05c.33.27.75.41,1.26.41.64,0,1.2-.14,1.68-.42.48-.28.85-.65,1.11-1.12.26-.47.4-.98.4-1.55v-2.9c0-.56-.21-1.01-.61-1.37-.41-.35-.96-.53-1.64-.53-.63,0-1.17.16-1.64.49-.47.33-.81.75-1.03,1.26l-1.96-.98c.21-.56.55-1.05,1.02-1.47s1.02-.75,1.66-.99,1.3-.35,2.01-.35c.89,0,1.68.17,2.37.5s1.22.8,1.6,1.39c.38.59.57,1.27.57,2.05v7.59h-2.25v-2.04l.48.06c-.26.46-.6.85-1.01,1.19-.41.33-.88.59-1.4.77-.52.18-1.1.27-1.74.27Z"/>
        <path class="cls-1" d="M427.21,16.03c-1.13,0-2.12-.26-2.99-.78-.87-.52-1.56-1.23-2.06-2.12-.51-.89-.76-1.9-.76-3.02s.25-2.11.75-3c.5-.89,1.19-1.59,2.06-2.09.88-.51,1.88-.76,3-.76.76,0,1.48.14,2.15.41.67.27,1.25.64,1.74,1.11.49.47.86,1.02,1.09,1.65l-2.06.96c-.24-.58-.62-1.05-1.14-1.41-.52-.35-1.11-.53-1.78-.53s-1.21.16-1.72.47c-.51.31-.91.75-1.2,1.31-.29.56-.44,1.2-.44,1.91s.15,1.34.44,1.91c.29.56.69,1,1.2,1.32.51.32,1.08.48,1.72.48.68,0,1.27-.18,1.78-.53.51-.35.89-.83,1.14-1.43l2.06.98c-.22.6-.58,1.14-1.07,1.61-.49.48-1.07.86-1.74,1.14-.67.28-1.39.42-2.17.42Z"/>
        <path class="cls-1" d="M439.36,15.9c-1.18,0-2.1-.33-2.75-1-.65-.67-.98-1.6-.98-2.81v-5.46h-1.98v-2.13h.31c.53,0,.94-.15,1.23-.46.29-.31.44-.72.44-1.25v-.88h2.36v2.58h2.56v2.13h-2.56v5.36c0,.39.06.72.19.99.13.27.33.48.6.62.28.15.64.22,1.08.22.11,0,.24,0,.37-.02s.27-.03.4-.04v2.02c-.2.03-.41.06-.65.08-.24.03-.44.04-.63.04Z"/>
        <path class="cls-1" d="M444.19,15.78V6.63h-2.08v-2.13h2.08v-.58c0-.85.17-1.56.52-2.14.35-.58.83-1.02,1.45-1.32.62-.31,1.33-.46,2.14-.46.15,0,.33,0,.52.03.19.02.35.05.48.07v2.04c-.11-.03-.24-.05-.38-.05-.14,0-.25-.01-.33-.01-.63,0-1.13.14-1.5.43s-.56.75-.56,1.41v.58h2.58v2.13h-2.58v9.15h-2.33Z"/>
        <path class="cls-1" d="M455.32,16.03c-.85,0-1.59-.19-2.23-.57-.64-.38-1.14-.92-1.49-1.6-.35-.69-.53-1.48-.53-2.39v-6.96h2.36v6.75c0,.51.1.97.31,1.35.21.39.5.69.88.91.37.22.81.32,1.29.32s.94-.11,1.31-.33c.38-.22.67-.53.89-.94.22-.4.32-.88.32-1.42v-6.65h2.33v11.28h-2.23v-2.21l.25.29c-.26.69-.7,1.23-1.31,1.6-.61.37-1.33.56-2.15.56Z"/>
        <path class="cls-1" d="M463.51,15.78V0h2.36v15.78h-2.36Z"/>
        <path class="cls-1" d="M472.5,15.78V.25h2.29l5.84,8.09h-1.15l5.73-8.09h2.29v15.53h-2.44V3.15l.92.25-5.86,8h-.25l-5.73-8,.81-.25v12.63h-2.46Z"/>
        <path class="cls-1" d="M493.86,16.03c-.76,0-1.44-.14-2.01-.41-.58-.27-1.02-.65-1.34-1.13s-.48-1.05-.48-1.7c0-.61.14-1.16.41-1.65.27-.49.69-.9,1.26-1.23.57-.33,1.29-.57,2.15-.71l3.92-.65v1.86l-3.46.6c-.63.11-1.08.31-1.38.59s-.44.65-.44,1.09.16.78.49,1.05c.33.27.75.41,1.26.41.64,0,1.2-.14,1.68-.42.48-.28.85-.65,1.11-1.12.26-.47.4-.98.4-1.55v-2.9c0-.56-.21-1.01-.61-1.37-.41-.35-.96-.53-1.64-.53-.63,0-1.17.16-1.64.49-.47.33-.81.75-1.03,1.26l-1.96-.98c.21-.56.55-1.05,1.02-1.47s1.02-.75,1.66-.99,1.3-.35,2.01-.35c.89,0,1.68.17,2.37.5s1.22.8,1.6,1.39c.38.59.57,1.27.57,2.05v7.59h-2.25v-2.04l.48.06c-.26.46-.6.85-1.01,1.19-.41.33-.88.59-1.4.77-.52.18-1.1.27-1.74.27Z"/>
        <path class="cls-1" d="M502.53,15.78V4.5h2.25v2.27l-.21-.33c.25-.74.65-1.27,1.21-1.59.56-.33,1.22-.49,2-.49h.69v2.15h-.98c-.78,0-1.41.24-1.89.72s-.72,1.16-.72,2.05v6.5h-2.36Z"/>
        <path class="cls-1" d="M510.07,15.78V0h2.36v10.57l-.92-.23,5.65-5.84h2.94l-4.25,4.52,4.44,6.75h-2.71l-3.96-5.98,1.4-.19-3.33,3.54.75-1.56v4.19h-2.36Z"/>
        <path class="cls-1" d="M526.98,16.03c-1.13,0-2.12-.26-2.99-.78-.87-.52-1.55-1.23-2.03-2.13s-.73-1.9-.73-3.01.25-2.15.74-3.02c.49-.88,1.16-1.57,1.99-2.07.83-.51,1.78-.76,2.83-.76.85,0,1.6.15,2.27.44.67.29,1.23.69,1.69,1.2.46.51.81,1.09,1.05,1.74.24.65.36,1.35.36,2.08,0,.18,0,.37-.02.56-.01.2-.04.38-.08.54h-8.98v-1.88h7.65l-1.12.85c.14-.68.09-1.29-.14-1.82s-.58-.96-1.04-1.27-1.01-.47-1.64-.47-1.18.16-1.67.47-.86.76-1.12,1.33c-.26.58-.37,1.28-.31,2.09-.07.76.04,1.43.32,2,.28.57.69,1.01,1.21,1.33.52.32,1.11.48,1.78.48s1.26-.15,1.74-.46c.48-.31.86-.7,1.14-1.19l1.92.94c-.22.53-.57,1-1.03,1.43-.47.42-1.02.76-1.67,1-.65.24-1.35.36-2.12.36Z"/>
        <path class="cls-1" d="M539.34,15.9c-1.18,0-2.1-.33-2.75-1-.65-.67-.98-1.6-.98-2.81v-5.46h-1.98v-2.13h.31c.53,0,.94-.15,1.23-.46.29-.31.44-.72.44-1.25v-.88h2.36v2.58h2.56v2.13h-2.56v5.36c0,.39.06.72.19.99.13.27.33.48.6.62.28.15.64.22,1.08.22.11,0,.24,0,.37-.02s.27-.03.4-.04v2.02c-.2.03-.41.06-.65.08-.24.03-.44.04-.63.04Z"/>
        <path class="cls-1" d="M542.9,19.95V4.5h2.25v2.33l-.27-.54c.42-.64.97-1.14,1.67-1.5.69-.36,1.49-.54,2.38-.54,1.07,0,2.03.26,2.89.77.85.51,1.53,1.22,2.02,2.11.49.89.74,1.89.74,3s-.25,2.11-.74,3c-.49.89-1.16,1.59-2.01,2.12-.85.52-1.81.78-2.9.78-.88,0-1.67-.18-2.39-.54-.72-.36-1.27-.88-1.66-1.56l.38-.44v6.46h-2.36ZM548.69,13.84c.67,0,1.26-.16,1.77-.48.51-.32.92-.76,1.22-1.32.3-.56.45-1.2.45-1.91s-.15-1.34-.45-1.9c-.3-.56-.71-.99-1.22-1.31-.51-.32-1.11-.48-1.77-.48s-1.24.16-1.76.48c-.52.32-.93.76-1.23,1.31-.3.56-.45,1.19-.45,1.9s.15,1.34.45,1.91c.3.56.71,1,1.23,1.32.52.32,1.11.48,1.76.48Z"/>
        <path class="cls-1" d="M556.86,15.78V0h2.36v15.78h-2.36Z"/>
        <path class="cls-1" d="M565.35,16.03c-.76,0-1.44-.14-2.01-.41-.58-.27-1.02-.65-1.34-1.13s-.48-1.05-.48-1.7c0-.61.14-1.16.41-1.65.27-.49.69-.9,1.26-1.23.57-.33,1.29-.57,2.15-.71l3.92-.65v1.86l-3.46.6c-.63.11-1.08.31-1.38.59s-.44.65-.44,1.09.16.78.49,1.05c.33.27.75.41,1.26.41.64,0,1.2-.14,1.68-.42.48-.28.85-.65,1.11-1.12.26-.47.4-.98.4-1.55v-2.9c0-.56-.21-1.01-.61-1.37-.41-.35-.96-.53-1.64-.53-.63,0-1.17.16-1.64.49-.47.33-.81.75-1.03,1.26l-1.96-.98c.21-.56.55-1.05,1.02-1.47s1.02-.75,1.66-.99c.63-.24,1.3-.35,2.01-.35.89,0,1.68.17,2.37.5s1.22.8,1.6,1.39c.38.59.57,1.27.57,2.05v7.59h-2.25v-2.04l.48.06c-.26.46-.6.85-1.01,1.19-.41.33-.88.59-1.4.77-.52.18-1.1.27-1.74.27Z"/>
        <path class="cls-1" d="M579.37,16.03c-1.13,0-2.12-.26-2.99-.78-.87-.52-1.56-1.23-2.06-2.12-.51-.89-.76-1.9-.76-3.02s.25-2.11.75-3c.5-.89,1.19-1.59,2.06-2.09.88-.51,1.88-.76,3-.76.76,0,1.48.14,2.15.41.67.27,1.25.64,1.74,1.11.49.47.86,1.02,1.09,1.65l-2.06.96c-.24-.58-.62-1.05-1.14-1.41s-1.11-.53-1.78-.53-1.21.16-1.72.47c-.51.31-.91.75-1.2,1.31-.29.56-.44,1.2-.44,1.91s.15,1.34.44,1.91c.29.56.69,1,1.2,1.32.51.32,1.08.48,1.72.48.68,0,1.27-.18,1.78-.53.51-.35.89-.83,1.14-1.43l2.06.98c-.22.6-.58,1.14-1.07,1.61-.49.48-1.07.86-1.74,1.14-.67.28-1.39.42-2.17.42Z"/>
        <path class="cls-1" d="M591.94,16.03c-1.13,0-2.12-.26-2.99-.78-.87-.52-1.55-1.23-2.03-2.13s-.73-1.9-.73-3.01.25-2.15.74-3.02c.49-.88,1.16-1.57,1.99-2.07.83-.51,1.78-.76,2.83-.76.85,0,1.6.15,2.27.44.67.29,1.23.69,1.69,1.2.46.51.81,1.09,1.05,1.74.24.65.36,1.35.36,2.08,0,.18,0,.37-.02.56-.01.2-.04.38-.08.54h-8.98v-1.88h7.65l-1.12.85c.14-.68.09-1.29-.14-1.82s-.58-.96-1.04-1.27-1.01-.47-1.64-.47-1.18.16-1.67.47-.86.76-1.12,1.33c-.26.58-.37,1.28-.31,2.09-.07.76.04,1.43.32,2,.28.57.69,1.01,1.21,1.33.52.32,1.11.48,1.78.48s1.26-.15,1.74-.46c.48-.31.86-.7,1.14-1.19l1.92.94c-.22.53-.57,1-1.03,1.43-.47.42-1.02.76-1.67,1-.65.24-1.35.36-2.12.36Z"/>
        <path class="cls-1" d="M371.25,42.76v-15.53h2.46v15.53h-2.46Z"/>
        <path class="cls-1" d="M376.69,42.76v-11.28h2.25v2.21l-.27-.29c.28-.71.72-1.25,1.33-1.61.61-.37,1.32-.55,2.13-.55s1.57.18,2.21.54,1.14.86,1.5,1.5c.36.64.54,1.38.54,2.21v7.27h-2.33v-6.65c0-.57-.1-1.05-.31-1.45-.21-.4-.5-.7-.89-.92-.38-.22-.82-.32-1.3-.32s-.92.11-1.3.32c-.38.22-.68.53-.89.93-.21.4-.31.88-.31,1.44v6.65h-2.36Z"/>
        <path class="cls-1" d="M390.17,42.76v-9.15h-2.08v-2.13h2.08v-.58c0-.85.17-1.56.52-2.14s.83-1.02,1.45-1.32c.62-.31,1.33-.46,2.14-.46.15,0,.33.01.52.03.19.02.35.05.48.07v2.04c-.11-.03-.24-.05-.38-.05-.14,0-.25-.01-.33-.01-.63,0-1.13.14-1.5.43s-.56.75-.56,1.41v.58h2.58v2.13h-2.58v9.15h-2.33Z"/>
        <path class="cls-1" d="M397.18,42.76v-11.28h2.25v2.27l-.21-.33c.25-.74.65-1.27,1.21-1.59.56-.33,1.22-.49,2-.49h.69v2.15h-.98c-.78,0-1.41.24-1.89.72s-.72,1.16-.72,2.05v6.5h-2.36Z"/>
        <path class="cls-1" d="M408.1,43.01c-.76,0-1.44-.14-2.01-.41-.58-.27-1.02-.65-1.34-1.13s-.48-1.05-.48-1.7c0-.61.14-1.16.41-1.65.27-.49.69-.9,1.26-1.23.57-.33,1.29-.57,2.15-.71l3.92-.65v1.86l-3.46.6c-.63.11-1.08.31-1.38.59-.29.29-.44.65-.44,1.09s.16.78.49,1.05c.33.27.75.41,1.26.41.64,0,1.2-.14,1.68-.42.48-.28.85-.65,1.11-1.11.26-.47.4-.98.4-1.55v-2.9c0-.56-.21-1.01-.61-1.37-.41-.35-.96-.53-1.64-.53-.63,0-1.17.16-1.64.49-.47.33-.81.75-1.03,1.26l-1.96-.98c.21-.56.55-1.05,1.02-1.47.47-.42,1.02-.75,1.66-.99s1.3-.35,2.01-.35c.89,0,1.68.17,2.37.5.69.33,1.22.8,1.6,1.39.38.59.57,1.28.57,2.05v7.59h-2.25v-2.04l.48.06c-.26.46-.6.85-1.01,1.19-.41.33-.88.59-1.4.77-.52.18-1.1.27-1.74.27Z"/>
        <path class="cls-1" d="M420.94,43.01c-1.15,0-2.16-.28-3.03-.85-.87-.57-1.48-1.33-1.82-2.29l1.81-.85c.31.64.73,1.15,1.26,1.52.53.37,1.13.56,1.78.56.56,0,1.01-.13,1.35-.37.35-.25.52-.59.52-1.02,0-.28-.08-.5-.23-.68-.15-.17-.34-.32-.57-.43s-.46-.19-.7-.25l-1.77-.5c-.97-.28-1.7-.7-2.18-1.26-.48-.56-.72-1.22-.72-1.97,0-.68.17-1.27.52-1.78.35-.51.83-.9,1.44-1.18.61-.28,1.3-.42,2.06-.42,1.03,0,1.95.25,2.75.76.81.51,1.38,1.21,1.71,2.12l-1.81.85c-.22-.54-.57-.97-1.05-1.29s-1.02-.48-1.62-.48c-.51,0-.92.12-1.23.36-.31.24-.46.56-.46.95,0,.26.07.48.21.66.14.17.32.31.54.42.22.1.45.19.69.26l1.83.54c.93.26,1.65.68,2.15,1.24.5.56.75,1.23.75,2.01,0,.67-.18,1.25-.53,1.76-.35.51-.84.9-1.47,1.19s-1.35.43-2.19.43Z"/>
        <path class="cls-1" d="M432.31,42.89c-1.18,0-2.1-.33-2.75-1-.65-.67-.98-1.6-.98-2.81v-5.46h-1.98v-2.13h.31c.53,0,.94-.15,1.23-.46s.44-.72.44-1.25v-.88h2.36v2.58h2.56v2.13h-2.56v5.36c0,.39.06.72.19.99.13.27.33.48.6.63.28.15.64.22,1.08.22.11,0,.24,0,.37-.02.14-.01.27-.03.4-.04v2.02c-.2.03-.41.06-.65.08-.24.03-.44.04-.63.04Z"/>
        <path class="cls-1" d="M435.88,42.76v-11.28h2.25v2.27l-.21-.33c.25-.74.65-1.27,1.21-1.59.56-.33,1.22-.49,2-.49h.69v2.15h-.98c-.78,0-1.41.24-1.89.72s-.72,1.16-.72,2.05v6.5h-2.36Z"/>
        <path class="cls-1" d="M447.45,43.01c-.85,0-1.59-.19-2.23-.57-.64-.38-1.14-.92-1.49-1.6-.35-.69-.53-1.48-.53-2.39v-6.96h2.36v6.75c0,.51.1.97.31,1.35.21.39.5.69.88.91.37.22.81.32,1.29.32s.94-.11,1.31-.33c.38-.22.67-.53.89-.94.22-.4.32-.88.32-1.42v-6.65h2.33v11.28h-2.23v-2.21l.25.29c-.26.7-.7,1.23-1.31,1.6-.61.38-1.33.56-2.15.56Z"/>
        <path class="cls-1" d="M460.99,43.01c-1.13,0-2.12-.26-2.99-.78-.87-.52-1.56-1.23-2.06-2.12-.51-.89-.76-1.9-.76-3.02s.25-2.11.75-3c.5-.89,1.19-1.59,2.06-2.09.88-.51,1.88-.76,3-.76.76,0,1.48.14,2.15.41.67.27,1.25.64,1.74,1.11.49.47.86,1.02,1.09,1.65l-2.06.96c-.24-.58-.62-1.05-1.14-1.41s-1.11-.53-1.78-.53-1.21.16-1.72.47c-.51.31-.91.75-1.2,1.31-.29.56-.44,1.2-.44,1.91s.15,1.34.44,1.91c.29.56.69,1,1.2,1.32.51.32,1.08.48,1.72.48.68,0,1.27-.18,1.78-.53.51-.35.89-.83,1.14-1.43l2.06.98c-.22.6-.58,1.14-1.07,1.62-.49.48-1.07.86-1.74,1.14-.67.28-1.39.42-2.17.42Z"/>
        <path class="cls-1" d="M473.14,42.89c-1.18,0-2.1-.33-2.75-1-.65-.67-.98-1.6-.98-2.81v-5.46h-1.98v-2.13h.31c.53,0,.94-.15,1.23-.46s.44-.72.44-1.25v-.88h2.36v2.58h2.56v2.13h-2.56v5.36c0,.39.06.72.19.99.13.27.33.48.6.63.28.15.64.22,1.08.22.11,0,.24,0,.37-.02.14-.01.27-.03.4-.04v2.02c-.2.03-.41.06-.65.08-.24.03-.44.04-.63.04Z"/>
        <path class="cls-1" d="M480.73,43.01c-.85,0-1.59-.19-2.23-.57-.64-.38-1.14-.92-1.49-1.6-.35-.69-.53-1.48-.53-2.39v-6.96h2.36v6.75c0,.51.1.97.31,1.35.21.39.5.69.88.91.37.22.81.32,1.29.32s.94-.11,1.31-.33c.38-.22.67-.53.89-.94.22-.4.32-.88.32-1.42v-6.65h2.33v11.28h-2.23v-2.21l.25.29c-.26.7-.7,1.23-1.31,1.6-.61.38-1.33.56-2.15.56Z"/>
        <path class="cls-1" d="M488.92,42.76v-11.28h2.25v2.27l-.21-.33c.25-.74.65-1.27,1.21-1.59.56-.33,1.22-.49,2-.49h.69v2.15h-.98c-.78,0-1.41.24-1.89.72s-.72,1.16-.72,2.05v6.5h-2.36Z"/>
        <path class="cls-1" d="M501.76,43.01c-1.13,0-2.12-.26-2.99-.78-.87-.52-1.55-1.23-2.03-2.13s-.73-1.9-.73-3.01.25-2.15.74-3.02c.49-.88,1.16-1.57,1.99-2.07.83-.51,1.78-.76,2.83-.76.85,0,1.6.15,2.27.44.67.29,1.23.69,1.69,1.2.46.51.81,1.09,1.05,1.74.24.65.36,1.35.36,2.08,0,.18,0,.37-.02.56-.01.19-.04.38-.08.54h-8.98v-1.88h7.65l-1.12.85c.14-.68.09-1.29-.14-1.82-.23-.53-.58-.96-1.04-1.27-.47-.31-1.01-.47-1.64-.47s-1.18.16-1.67.47c-.49.31-.86.76-1.12,1.33-.26.58-.37,1.28-.31,2.09-.07.76.04,1.43.32,2,.28.57.69,1.01,1.21,1.33.52.32,1.11.48,1.78.48s1.26-.15,1.74-.46.86-.7,1.14-1.19l1.92.94c-.22.53-.57,1-1.03,1.43-.47.42-1.02.76-1.67,1-.65.24-1.35.36-2.12.36Z"/>
        <path class="cls-1" d="M513.12,42.76v-15.53h10.11v2.19h-7.65v4.67h6.82v2.19h-6.82v6.48h-2.46Z"/>
        <path class="cls-1" d="M530.19,43.01c-1.08,0-2.07-.26-2.97-.77s-1.61-1.22-2.14-2.11c-.53-.89-.79-1.9-.79-3.02s.26-2.15.79-3.03c.53-.88,1.24-1.58,2.13-2.08.89-.51,1.88-.76,2.98-.76s2.11.25,2.99.76c.88.51,1.58,1.2,2.1,2.08s.78,1.89.78,3.03-.26,2.15-.79,3.04c-.53.89-1.24,1.59-2.13,2.09-.89.51-1.88.76-2.96.76ZM530.19,40.83c.67,0,1.26-.16,1.77-.48.51-.32.92-.76,1.22-1.32.3-.56.45-1.2.45-1.91s-.15-1.34-.45-1.9c-.3-.56-.71-.99-1.22-1.31-.51-.32-1.11-.48-1.77-.48s-1.24.16-1.76.48c-.52.32-.93.76-1.23,1.31s-.45,1.19-.45,1.9.15,1.34.45,1.91c.3.56.71,1,1.23,1.32.52.32,1.11.48,1.76.48Z"/>
        <path class="cls-1" d="M538.36,42.76v-11.28h2.25v2.27l-.21-.33c.25-.74.65-1.27,1.21-1.59.56-.33,1.22-.49,2-.49h.69v2.15h-.98c-.78,0-1.41.24-1.89.72s-.72,1.16-.72,2.05v6.5h-2.36Z"/>
        <path class="cls-1" d="M371.25,69.75v-15.53h5.65c1.04,0,1.96.19,2.76.57.8.38,1.42.94,1.87,1.67.44.73.67,1.6.67,2.62s-.23,1.86-.68,2.58c-.45.72-1.07,1.28-1.87,1.67-.79.39-1.71.58-2.75.58h-3.19v5.84h-2.46ZM373.71,61.73h3.25c.56,0,1.04-.11,1.46-.33s.74-.53.98-.93c.24-.4.35-.86.35-1.41s-.12-1.01-.35-1.41c-.24-.4-.56-.7-.98-.92-.42-.22-.9-.32-1.46-.32h-3.25v5.31Z"/>
        <path class="cls-1" d="M389.51,70c-1.08,0-2.07-.26-2.97-.77s-1.61-1.22-2.14-2.11c-.53-.89-.79-1.9-.79-3.02s.26-2.15.79-3.03c.53-.88,1.24-1.58,2.13-2.08.89-.51,1.88-.76,2.98-.76s2.11.25,2.99.76c.88.51,1.58,1.2,2.1,2.08.52.88.78,1.89.78,3.03s-.26,2.15-.79,3.04c-.53.89-1.24,1.59-2.13,2.09-.89.51-1.88.76-2.96.76ZM389.51,67.81c.67,0,1.26-.16,1.77-.48.51-.32.92-.76,1.22-1.32.3-.56.45-1.2.45-1.91s-.15-1.34-.45-1.9c-.3-.56-.71-.99-1.22-1.31-.51-.32-1.11-.48-1.77-.48s-1.24.16-1.76.48c-.52.32-.93.76-1.23,1.31-.3.56-.45,1.19-.45,1.9s.15,1.34.45,1.91c.3.56.71,1,1.23,1.32.52.32,1.11.48,1.76.48Z"/>
        <path class="cls-1" d="M397.68,69.75v-15.78h2.36v15.78h-2.36Z"/>
        <path class="cls-1" d="M402.78,69.75v-15.78h2.36v10.57l-.92-.23,5.65-5.84h2.94l-4.25,4.52,4.44,6.75h-2.71l-3.96-5.98,1.4-.19-3.33,3.54.75-1.56v4.19h-2.36Z"/>
        <path class="cls-1" d="M417.98,70c-.76,0-1.44-.14-2.01-.41-.58-.27-1.02-.65-1.34-1.13s-.48-1.05-.48-1.7c0-.61.14-1.16.41-1.65.27-.49.69-.9,1.26-1.23.57-.33,1.29-.57,2.15-.71l3.92-.65v1.86l-3.46.6c-.63.11-1.08.31-1.38.59-.29.29-.44.65-.44,1.09s.16.78.49,1.05c.33.27.75.41,1.26.41.64,0,1.2-.14,1.68-.42.48-.28.85-.65,1.11-1.11.26-.47.4-.98.4-1.55v-2.9c0-.56-.21-1.01-.61-1.37-.41-.35-.96-.53-1.64-.53-.63,0-1.17.16-1.64.49-.47.33-.81.75-1.03,1.26l-1.96-.98c.21-.56.55-1.05,1.02-1.47s1.02-.75,1.66-.99c.63-.24,1.3-.35,2.01-.35.89,0,1.68.17,2.37.5.69.33,1.22.8,1.6,1.39.38.59.57,1.28.57,2.05v7.59h-2.25v-2.04l.48.06c-.26.46-.6.85-1.01,1.19-.41.33-.88.59-1.4.77-.52.18-1.1.27-1.74.27Z"/>
        <path class="cls-1" d="M431.86,70c-1.08,0-2.05-.26-2.91-.78-.85-.52-1.53-1.23-2.02-2.12-.49-.89-.74-1.89-.74-3s.25-2.11.75-3c.5-.89,1.17-1.59,2.02-2.11.85-.51,1.81-.77,2.88-.77.9,0,1.7.18,2.4.54s1.24.86,1.65,1.5l-.35.54v-6.84h2.33v15.78h-2.23v-2.29l.27.44c-.39.68-.94,1.2-1.67,1.56s-1.51.54-2.38.54ZM432.09,67.81c.65,0,1.24-.16,1.76-.48.52-.32.93-.76,1.23-1.32.3-.56.45-1.2.45-1.91s-.15-1.34-.45-1.9c-.3-.56-.71-.99-1.23-1.31-.52-.32-1.11-.48-1.76-.48s-1.24.16-1.77.48c-.53.32-.94.76-1.23,1.31-.29.56-.44,1.19-.44,1.9s.15,1.34.44,1.91c.29.56.7,1,1.22,1.32.52.32,1.11.48,1.78.48Z"/>
        <path class="cls-1" d="M446.05,70c-1.08,0-2.07-.26-2.97-.77s-1.61-1.22-2.14-2.11c-.53-.89-.79-1.9-.79-3.02s.26-2.15.79-3.03c.53-.88,1.24-1.58,2.13-2.08.89-.51,1.88-.76,2.98-.76s2.11.25,2.99.76c.88.51,1.58,1.2,2.1,2.08.52.88.78,1.89.78,3.03s-.26,2.15-.79,3.04c-.53.89-1.24,1.59-2.13,2.09-.89.51-1.88.76-2.96.76ZM446.05,67.81c.67,0,1.26-.16,1.77-.48.51-.32.92-.76,1.22-1.32.3-.56.45-1.2.45-1.91s-.15-1.34-.45-1.9c-.3-.56-.71-.99-1.22-1.31-.51-.32-1.11-.48-1.77-.48s-1.24.16-1.76.48c-.52.32-.93.76-1.23,1.31-.3.56-.45,1.19-.45,1.9s.15,1.34.45,1.91c.3.56.71,1,1.23,1.32.52.32,1.11.48,1.76.48Z"/>
        <path class="cls-1" d="M458.89,69.88c-1.18,0-2.1-.33-2.75-1-.65-.67-.98-1.6-.98-2.81v-5.46h-1.98v-2.13h.31c.53,0,.94-.15,1.23-.46s.44-.72.44-1.25v-.88h2.36v2.58h2.56v2.13h-2.56v5.36c0,.39.06.72.19.99.13.27.33.48.6.63.28.15.64.22,1.08.22.11,0,.24,0,.37-.02.14-.01.27-.03.4-.04v2.02c-.2.03-.41.06-.65.08-.24.03-.44.04-.63.04Z"/>
        <path class="cls-1" d="M463.49,69.75v-2.71h2.4v2.71h-2.4Z"/>
      </g>
      <g>
        <g>
          <g>
            <path class="cls-1" d="M297.65,1.64h-2.59s0-1.64,0-1.64h7.36s0,1.64,0,1.64h-2.59s0,6.42,0,6.42h-2.18s0-6.42,0-6.42Z"/>
            <path class="cls-1" d="M303.3,0h2.43s2.19,5.12,2.19,5.12L310.11,0h2.38s0,8.06,0,8.06h-1.92s0-4.39,0-4.39c0-.19.04-.81.05-.86l-.3.86-1.81,4.39h-1.29s-1.81-4.39-1.81-4.39c-.08-.19-.27-.77-.3-.86,0,.05.05.67.05.86v4.39s-1.87,0-1.87,0V0Z"/>
          </g>
          <path class="cls-1" d="M75.68,0h14.18c.54,0,.97.43.97.97v67.75c0,.54-.43.97-.97.97h-14.18c-.54,0-.97-.43-.97-.97V.97c0-.54.43-.97.97-.97Z"/>
          <path class="cls-1" d="M181.96,14.08h-14.5c-.54,0-.97-.43-.97-.97V.97c0-.54.43-.97.97-.97h45.13c.54,0,.97.43.97.97v12.14c0,.54-.43.97-.97.97h-14.41s0,54.64,0,54.64c0,.54-.43.97-.97.97h-14.27c-.54,0-.97-.43-.97-.97V14.08Z"/>
          <path class="cls-1" d="M275.97,34.85l-10.58,18.32h-22.17s-10.58-18.32-10.58-18.32l10.58-18.32h22.17s10.58,18.32,10.58,18.32ZM270.9,0h-33.17c-2.5,0-4.81,1.33-6.06,3.5l-16.08,27.85c-1.25,2.17-1.25,4.83,0,7l16.08,27.85c1.25,2.17,3.56,3.5,6.06,3.5h33.17c2.5,0,4.81-1.33,6.06-3.5l16.08-27.85c1.25-2.17,1.25-4.83,0-7l-16.08-27.85C275.71,1.34,273.4,0,270.9,0Z"/>
          <path class="cls-1" d="M151.03,45.12c7.51-4.17,11.86-11.4,11.86-21.31C162.89,8.9,152.42,0,134.25,0h-30.62c-.54,0-.97.43-.97.97v67.75c0,.54.43.97.97.97h14.46c.54,0,.97-.43.97-.97v-18.13s17.46,0,17.46,0l9.98,18.59c.17.32.5.51.86.51h15.39c.74,0,1.2-.79.85-1.43l-12.57-23.13ZM130.46,36.41h-11.39s0-22.24,0-22.24h13.62c9.91,0,13.62,3.98,13.62,10.47,0,7.69-4.91,11.77-15.84,11.77Z"/>
        </g>
        <path class="cls-1" d="M35.57,69.14L67.54,1.39c.3-.64-.17-1.39-.88-1.39h-14.88c-.38,0-.73.23-.89.58l-16.89,38.12L17.02.58C16.87.23,16.52,0,16.13,0H.97C.26,0-.21.74.09,1.39l32.05,67.75c.16.34.5.56.88.56h1.66c.38,0,.72-.22.88-.56Z"/>
      </g>
    </g>
  </g>
</svg>